<svg xmlns="http://www.w3.org/2000/svg" viewBox="0 0 100 100">
  <!-- Definición de gradientes -->
  <defs>
    <linearGradient id="mainGradient" x1="0%" y1="0%" x2="100%" y2="100%">
      <stop offset="0%" stop-color="#0088FF" />
      <stop offset="100%" stop-color="#00E6B5" />
    </linearGradient>
    <linearGradient id="symbolGradient" x1="20%" y1="20%" x2="80%" y2="80%">
      <stop offset="0%" stop-color="#FFFFFF" />
      <stop offset="100%" stop-color="#E0E0E0" />
    </linearGradient>
    <filter id="shadow" x="-10%" y="-10%" width="120%" height="120%">
      <feDropShadow dx="0" dy="2" stdDeviation="2" flood-color="#00000033" />
    </filter>
  </defs>
  
  <!-- Moneda base con gradiente -->
  <circle cx="50" cy="50" r="45" fill="url(#mainGradient)" filter="url(#shadow)" />
  
  <!-- Borde de la moneda -->
  <circle cx="50" cy="50" r="45" fill="none" stroke="white" stroke-width="2" opacity="0.3" />
  
  <!-- Símbolo de la divisa -->
  <path d="M50 22
           C60 22, 65 28, 65 35
           C65 42, 60 48, 48 50
           C38 52, 35 55, 35 60
           C35 65, 40 68, 50 68
           C58 68, 63 65, 65 60
           M50 22 V15
           M50 68 V78"
        stroke="url(#symbolGradient)" 
        stroke-width="6" 
        stroke-linecap="round"
        fill="none" />
        
  <!-- Destellos -->
  <circle cx="25" cy="30" r="3" fill="white" opacity="0.7" />
  <circle cx="75" cy="70" r="2" fill="white" opacity="0.5" />
</svg> 